<?xml version="1.0" encoding="UTF-8" standalone="no"?>
<!-- Created with Inkscape (http://www.inkscape.org/) -->

<svg
   width="64"
   height="64"
   viewBox="0 0 16.933333 16.933333"
   background="#ffffff"
   version="1.1"
   id="svg1"
   sodipodi:docname="icon.svg"
   inkscape:version="1.3 (0e150ed6c4, 2023-07-21)"
   xmlns:inkscape="http://www.inkscape.org/namespaces/inkscape"
   xmlns:sodipodi="http://sodipodi.sourceforge.net/DTD/sodipodi-0.dtd"
   xmlns="http://www.w3.org/2000/svg"
   xmlns:svg="http://www.w3.org/2000/svg">
  <defs
     id="defs1" />
  <sodipodi:namedview
     id="namedview1"
     pagecolor="#ffffff"
     bordercolor="#000000"
     borderopacity="0.25"
     inkscape:showpageshadow="2"
     inkscape:pageopacity="0.0"
     inkscape:pagecheckerboard="0"
     inkscape:deskcolor="#d1d1d1"
     inkscape:zoom="6.7379491"
     inkscape:cx="-2.4488163"
     inkscape:cy="32.279852"
     inkscape:window-width="1600"
     inkscape:window-height="837"
     inkscape:window-x="-8"
     inkscape:window-y="-8"
     inkscape:window-maximized="1"
     inkscape:current-layer="layer1" />
  <g
     inkscape:label="Capa 1"
     inkscape:groupmode="layer"
     id="layer1"
     transform="translate(-0.70305754,-2.1678265)">
    <rect
       style="fill:#fffff8;fill-opacity:1;fill-rule:evenodd;stroke-width:1.69413;stroke-linecap:square;stroke-miterlimit:3.2"
       id="rect1"
       width="21.715002"
       height="19.908691"
       x="-2.4383533"
       y="0.36151531" />
    <path
       id="path12"
       style="font-size:3.94274px;font-family:Philosopher;-inkscape-font-specification:Philosopher;text-align:center;text-anchor:middle;fill:#000000;fill-opacity:0.957143;stroke-width:0.210547;stroke-linecap:round;stroke-linejoin:round"
       d="M 4.5776341,4.2097433 V 4.5468969 H 14.36012 V 4.2097433 Z M 2.6075379,4.8297403 V 5.0351514 16.670447 H 15.89182 V 4.8297403 Z M 2.9493075,5.2400246 H 15.550498 V 16.259626 H 2.9493075 Z M 4.3445687,16.968347 v 0.337154 h 9.7824853 v -0.337154 z"
       sodipodi:nodetypes="ccccccccccccccccccccc" />
    <path
       d="M 4.9310863,6.0671045 V 6.3498782 H 5.170871 c 0.3370104,0 0.5628496,0.1187646 0.6751852,0.3553285 0.1123368,0.2271029 0.1672194,0.581532 0.1672194,1.0641242 v 7.6646731 h 1.0837658 v -4.541133 h 3.6109796 v 2.838905 c 0,0.482593 0.03203,0.842442 0.09622,1.079008 0.06419,0.236563 0.167914,0.402087 0.312351,0.496716 0.152465,0.08516 0.378297,0.126504 0.675186,0.126504 h 1.082188 v -0.282781 h -0.239783 c -0.337012,0 -0.562851,-0.113335 -0.675185,-0.340446 -0.112341,-0.236559 -0.167215,-0.596408 -0.167215,-1.079001 V 6.0671045 H 10.708021 V 10.325462 H 7.0970423 V 7.7693313 c 0,-0.4825912 -0.032037,-0.8405807 -0.096231,-1.0771465 C 6.9366189,6.4556202 6.8282963,6.2936559 6.6758404,6.2084916 6.5314071,6.1138666 6.3101651,6.0671045 6.0132758,6.0671045 Z"
       style="font-size:3.94274px;font-family:Philosopher;-inkscape-font-specification:Philosopher;text-align:center;text-anchor:middle;fill:#000000;fill-opacity:0.957143;stroke-width:0.735419;stroke-linecap:round;stroke-linejoin:round"
       id="path1" />
  </g>
</svg>
