<?xml version="1.0" encoding="UTF-8" standalone="no"?>
<!-- Created with Inkscape (http://www.inkscape.org/) -->

<svg
   width="64"
   height="64"
   viewBox="0 0 16.933333 16.933333"
   version="1.1"
   id="svg1"
   inkscape:version="1.3 (0e150ed6c4, 2023-07-21)"
   sodipodi:docname="logo.svg"
   xmlns:inkscape="http://www.inkscape.org/namespaces/inkscape"
   xmlns:sodipodi="http://sodipodi.sourceforge.net/DTD/sodipodi-0.dtd"
   xmlns="http://www.w3.org/2000/svg"
   xmlns:svg="http://www.w3.org/2000/svg">
  <sodipodi:namedview
     id="namedview1"
     pagecolor="#ffffff"
     bordercolor="#000000"
     borderopacity="0.25"
     inkscape:showpageshadow="2"
     inkscape:pageopacity="0.0"
     inkscape:pagecheckerboard="0"
     inkscape:deskcolor="#d1d1d1"
     inkscape:document-units="mm"
     inkscape:zoom="6.4605434"
     inkscape:cx="61.991689"
     inkscape:cy="19.889968"
     inkscape:window-width="1600"
     inkscape:window-height="837"
     inkscape:window-x="-8"
     inkscape:window-y="-8"
     inkscape:window-maximized="1"
     inkscape:current-layer="layer1" />
  <defs
     id="defs1">
    <linearGradient
       id="swatch11"
       inkscape:swatch="solid">
      <stop
         style="stop-color:#000000;stop-opacity:1;"
         offset="0"
         id="stop11" />
    </linearGradient>
    <clipPath
       clipPathUnits="userSpaceOnUse"
       id="clipPath2">
      <path
         sodipodi:type="star"
         style="fill:#000000;stroke-width:0.952765;stroke-linecap:round;stroke-linejoin:round"
         id="path2"
         inkscape:flatsided="true"
         sodipodi:sides="3"
         sodipodi:cx="97.63369"
         sodipodi:cy="19.002529"
         sodipodi:r1="19.953167"
         sodipodi:r2="9.9765835"
         sodipodi:arg1="2.6265198"
         sodipodi:arg2="3.6737174"
         inkscape:rounded="-3.469447e-18"
         inkscape:randomized="0"
         d="M 80.26931,28.831424 97.803807,-0.94991261 114.82795,29.126076 Z"
         inkscape:transform-center-x="0.052804282"
         inkscape:transform-center-y="-2.61244"
         transform="matrix(0.62078391,0,0,0.53158374,85.340288,33.049768)" />
    </clipPath>
  </defs>
  <g
     inkscape:label="Capa 1"
     inkscape:groupmode="layer"
     id="layer1">
    <path
       id="path12"
       style="font-size:3.94274px;font-family:Philosopher;-inkscape-font-specification:Philosopher;text-align:center;text-anchor:middle;stroke-width:0.22184;stroke-linecap:round;stroke-linejoin:round;fill:#ffffff;fill-opacity:1"
       d="M 3.0607951 2.1678263 L 3.0607951 2.4918376 L 14.361397 2.4918376 L 14.361397 2.1678263 L 3.0607951 2.1678263 z M 0.78496501 2.7636556 L 0.78496501 2.9610596 L 0.78496501 14.142806 L 16.130798 14.142806 L 16.130798 2.7636556 L 0.78496501 2.7636556 z M 1.1797729 3.1579468 L 15.736507 3.1579468 L 15.736507 13.747998 L 1.1797729 13.747998 L 1.1797729 3.1579468 z M 2.0593058 4.6400269 L 2.0593058 4.718575 L 2.137854 4.718575 C 2.2482508 4.718575 2.3222305 4.7515651 2.3590291 4.817277 C 2.3958278 4.8803608 2.4138062 4.9788132 2.4138062 5.1128662 L 2.4138062 7.2419352 L 2.7688232 7.2419352 L 2.7688232 5.9805135 L 3.9516968 5.9805135 L 3.9516968 6.7690959 C 3.9516968 6.9031489 3.9621915 7.0031069 3.9832194 7.0688192 C 4.0042473 7.1345314 4.0382259 7.1805105 4.0855387 7.2067952 C 4.1354801 7.2304519 4.2094597 7.2419352 4.3067139 7.2419352 L 4.6612142 7.2419352 L 4.6612142 7.163387 L 4.582666 7.163387 C 4.4722691 7.163387 4.3982895 7.1319031 4.3614909 7.0688192 C 4.3246923 7.0031069 4.3067139 6.9031489 4.3067139 6.7690959 L 4.3067139 4.6400269 L 3.9516968 4.6400269 L 3.9516968 5.8229004 L 2.7688232 5.8229004 L 2.7688232 5.1128662 C 2.7688232 4.9788135 2.7583286 4.8793723 2.7373006 4.8136597 C 2.7162726 4.7479476 2.6807885 4.7029576 2.6308472 4.6793009 C 2.5835343 4.6530163 2.5110603 4.6400269 2.4138062 4.6400269 L 2.0593058 4.6400269 z M 11.742436 4.6400269 L 11.742436 4.718575 L 11.821501 4.718575 C 11.931897 4.718575 12.005359 4.7515651 12.042159 4.817277 C 12.078959 4.8803608 12.097453 4.9788132 12.097453 5.1128662 L 12.097453 7.2419352 L 12.45247 7.2419352 L 12.45247 5.1128662 C 12.45247 4.9788135 12.441974 4.8793723 12.420947 4.8136597 C 12.399918 4.7479476 12.364434 4.7029576 12.314494 4.6793009 C 12.267181 4.6530163 12.194707 4.6400269 12.097453 4.6400269 L 11.742436 4.6400269 z M 5.7340169 5.3495443 C 5.5552796 5.3495443 5.3998368 5.3930287 5.2684123 5.4797689 C 5.1369877 5.5638806 5.0370297 5.6793222 4.968689 5.8265177 C 4.9003482 5.9737132 4.8663696 6.1366394 4.8663696 6.3153768 C 4.8663696 6.4941141 4.9003482 6.6570403 4.968689 6.8042358 C 5.0370297 6.9514313 5.1369877 7.0688954 5.2684123 7.1556356 C 5.3998368 7.2397473 5.5552796 7.2817261 5.7340169 7.2817261 C 5.9127543 7.2817261 6.0676803 7.2397473 6.1991048 7.1556356 C 6.3305294 7.0688954 6.4304874 6.9514313 6.4988281 6.8042358 C 6.5671689 6.6570403 6.6011475 6.4941141 6.6011475 6.3153768 C 6.6011475 6.1366394 6.5671689 5.9737132 6.4988281 5.8265177 C 6.4304874 5.6793222 6.3305294 5.5638806 6.1991048 5.4797689 C 6.0676803 5.3930287 5.9127543 5.3495443 5.7340169 5.3495443 z M 7.9891764 5.3495443 C 7.8787799 5.3495443 7.7788218 5.3695449 7.6894531 5.4089722 C 7.6027126 5.4457714 7.5317442 5.4917503 7.4765462 5.5469482 L 7.4569092 5.5469482 C 7.4332529 5.4943782 7.3952742 5.4548939 7.3427043 5.4286092 C 7.2927629 5.4023246 7.2187832 5.3888184 7.1215291 5.3888184 L 6.7670288 5.3888184 L 6.7670288 5.4678833 L 6.845577 5.4678833 C 6.9559735 5.4678833 7.0294362 5.500873 7.0662354 5.5665853 C 7.103034 5.6296691 7.1215291 5.7281215 7.1215291 5.8621745 L 7.1215291 7.2419352 L 7.4765462 7.2419352 L 7.4765462 5.736084 C 7.6000852 5.596774 7.7315274 5.5267944 7.8708374 5.5267944 C 7.9759769 5.5267944 8.0549455 5.56929 8.1075155 5.6534017 C 8.1600854 5.7348849 8.1860636 5.8698103 8.1860636 6.0590617 L 8.1860636 7.2419352 L 8.5410807 7.2419352 L 8.5410807 6.0590617 C 8.5410807 5.9144946 8.5345863 5.8225368 8.5214437 5.7831095 C 8.560871 5.7200259 8.6213447 5.6625634 8.702828 5.6099935 C 8.7843111 5.5547949 8.8617742 5.5267944 8.9353719 5.5267944 C 9.0405114 5.5267944 9.11948 5.56929 9.17205 5.6534017 C 9.2246199 5.7348849 9.2505981 5.8698103 9.2505981 6.0590617 L 9.2505981 7.2419352 L 9.6056152 7.2419352 L 9.6056152 6.0590617 C 9.6056152 5.7962126 9.5556361 5.6122972 9.4557536 5.5071574 C 9.3558709 5.4020178 9.2219344 5.3495443 9.0537109 5.3495443 C 8.9406859 5.3495443 8.8302331 5.3745338 8.722465 5.4244751 C 8.6173254 5.4717879 8.5303566 5.5387562 8.4620158 5.6254964 C 8.414703 5.5229853 8.3517348 5.4520168 8.27288 5.4125895 C 8.1940253 5.3705336 8.0995731 5.3495443 7.9891764 5.3495443 z M 10.839648 5.3495443 C 10.67931 5.3495443 10.538879 5.3930287 10.417969 5.4797689 C 10.29969 5.5638806 10.208721 5.6793222 10.145634 5.8265177 C 10.082554 5.9737132 10.051066 6.1366394 10.051066 6.3153768 C 10.051066 6.4967427 10.082554 6.6611745 10.145634 6.80837 C 10.208718 6.9529369 10.302181 7.0688954 10.42572 7.1556356 C 10.549259 7.2397473 10.700185 7.2817261 10.878923 7.2817261 C 11.034004 7.2817261 11.169446 7.248736 11.285099 7.1830241 C 11.400753 7.1173118 11.502217 7.0123648 11.588957 6.8677979 L 11.509892 6.80837 C 11.436295 6.9135094 11.356337 6.9924781 11.269596 7.045048 C 11.185484 7.097618 11.081526 7.1235962 10.957987 7.1235962 C 10.792392 7.1235962 10.662456 7.0541334 10.56783 6.9148234 C 10.473205 6.7755134 10.42572 6.5955979 10.42572 6.3748047 L 11.620479 6.3748047 L 11.628231 6.2171916 C 11.628231 5.9359431 11.562251 5.7215322 11.430827 5.5743368 C 11.302031 5.4245128 11.105126 5.3495443 10.839648 5.3495443 z M 12.712402 5.3495443 L 12.712402 5.4286092 C 12.927939 5.4496371 13.07237 5.5545841 13.145968 5.7438354 L 13.776937 7.2817261 L 13.698389 7.4982503 C 13.637933 7.65596 13.56546 7.7639182 13.481348 7.8217448 C 13.399864 7.8822001 13.294917 7.9121785 13.166121 7.9121785 L 13.166121 8.0305176 L 13.283944 8.0305176 C 13.43114 8.0305176 13.551098 7.9940445 13.643095 7.9204468 C 13.735092 7.8468491 13.81905 7.7059011 13.895276 7.4982503 L 14.664221 5.3888184 L 14.466817 5.3888184 L 13.970207 6.7572103 L 13.520622 5.6652873 C 13.433881 5.455008 13.276461 5.3495443 13.047782 5.3495443 L 12.712402 5.3495443 z M 5.7340169 5.5071574 C 5.8312711 5.5071574 5.9167343 5.5426416 5.990332 5.6136108 C 6.0665583 5.6845801 6.1240207 5.7820436 6.1634481 5.9055827 C 6.205504 6.0291217 6.2264933 6.1655528 6.2264933 6.3153768 C 6.2264933 6.4652008 6.205504 6.6021486 6.1634481 6.7256877 C 6.1240207 6.8492267 6.0665583 6.9461735 5.990332 7.0171427 C 5.9167343 7.088112 5.8312711 7.1235962 5.7340169 7.1235962 C 5.6367628 7.1235962 5.549794 7.088112 5.4735677 7.0171427 C 5.3999701 6.9461735 5.3419909 6.8492267 5.2999349 6.7256877 C 5.2605076 6.6021486 5.2410238 6.4652008 5.2410238 6.3153768 C 5.2410238 6.1655528 5.2605076 6.0291217 5.2999349 5.9055827 C 5.3419907 5.7820436 5.39997 5.6845801 5.4735677 5.6136108 C 5.549794 5.5426416 5.6367628 5.5071574 5.7340169 5.5071574 z M 10.839648 5.5071574 C 10.978958 5.5071574 11.082917 5.5676311 11.151257 5.6885417 C 11.219598 5.8094522 11.253577 5.9858844 11.253577 6.2171916 L 10.42572 6.2171916 C 10.42572 6.0831386 10.442707 5.9621912 10.47688 5.854423 C 10.513677 5.7466549 10.563655 5.6621805 10.626742 5.6017253 C 10.689825 5.5386413 10.760793 5.5071574 10.839648 5.5071574 z M 2.7533203 9.5684082 L 2.7533203 9.6469564 L 2.8318685 9.6469564 C 2.9422654 9.6469564 3.0157282 9.6799458 3.0525269 9.7456584 C 3.0893255 9.8087421 3.1078206 9.9071948 3.1078206 10.041248 L 3.1078206 12.170317 L 3.896403 12.170317 C 4.201308 12.170317 4.4576976 12.119349 4.6653483 12.016838 C 4.8756276 11.911698 4.9805745 11.726276 4.9805745 11.460799 C 4.9805745 11.287319 4.9321012 11.149382 4.834847 11.046871 C 4.7402214 10.94173 4.5717894 10.869257 4.3299683 10.82983 C 4.5034487 10.772003 4.6323963 10.693551 4.716508 10.593669 C 4.8006197 10.493786 4.8425985 10.381828 4.8425985 10.258289 C 4.8425985 9.9875541 4.7361458 9.8051441 4.5232381 9.7105184 C 4.3129589 9.6158928 4.0645695 9.5684082 3.778064 9.5684082 L 2.7533203 9.5684082 z M 3.7584269 9.7063843 C 3.871452 9.7063843 3.9819047 9.7258681 4.0896729 9.7652954 C 4.2000695 9.8020942 4.2905217 9.8615791 4.3614909 9.9430623 C 4.4324601 10.021917 4.4679443 10.12037 4.4679443 10.238652 C 4.4679443 10.351677 4.4379659 10.44914 4.3775106 10.530623 C 4.3170553 10.609481 4.2380867 10.669438 4.1408325 10.711491 C 4.0462069 10.750918 3.94526 10.770919 3.8374919 10.770919 L 3.4628377 10.770919 L 3.4628377 9.7456584 C 3.5679774 9.7193737 3.6664297 9.7063843 3.7584269 9.7063843 z M 6.2859212 10.277926 C 6.1781531 10.277926 6.083184 10.298918 6.0017008 10.340971 C 5.9228459 10.383028 5.8598777 10.434513 5.8125651 10.494967 L 5.7929281 10.494967 C 5.7719002 10.431885 5.7349104 10.386895 5.6823405 10.360608 C 5.6323992 10.331695 5.5579474 10.317716 5.4580648 10.317716 L 5.1423218 10.317716 L 5.1423218 10.396265 L 5.1815959 10.396265 C 5.2919927 10.396265 5.3659724 10.429253 5.402771 10.494967 C 5.4395696 10.558051 5.4580648 10.656503 5.4580648 10.790556 L 5.4580648 12.170317 L 5.8125651 12.170317 L 5.8125651 10.711491 C 5.8519928 10.651039 5.9044663 10.604071 5.9701782 10.569897 C 6.0358905 10.533097 6.1083645 10.514604 6.1872192 10.514604 C 6.2581882 10.514604 6.3211564 10.5251 6.376355 10.546126 C 6.4315534 10.564526 6.4735322 10.593516 6.5024455 10.632943 L 6.6605754 10.514604 C 6.6132621 10.430488 6.5672832 10.37152 6.5225993 10.337354 C 6.4700295 10.297927 6.3910609 10.277926 6.2859212 10.277926 z M 7.6382935 10.277926 C 7.4779556 10.277926 7.3370076 10.32141 7.216097 10.40815 C 7.0978151 10.492262 7.0073629 10.607704 6.944279 10.754899 C 6.881195 10.902095 6.8497111 11.065538 6.8497111 11.244275 C 6.8497111 11.425641 6.881195 11.589555 6.944279 11.736751 C 7.0073627 11.881318 7.1008262 11.997276 7.2243652 12.084017 C 7.3479043 12.168128 7.4988302 12.210107 7.6775675 12.210107 C 7.8326485 12.210107 7.9680907 12.177119 8.0837443 12.111405 C 8.1993979 12.045693 8.3003448 11.940746 8.387085 11.796179 L 8.3085368 11.736751 C 8.2349391 11.841894 8.1544649 11.920863 8.0677246 11.973429 C 7.983613 12.026003 7.8801716 12.052494 7.7566325 12.052494 C 7.5910376 12.052494 7.4605844 11.982515 7.3659587 11.843205 C 7.271333 11.703894 7.2243652 11.523979 7.2243652 11.303186 L 8.4186076 11.303186 L 8.4268758 11.145573 C 8.4268758 10.864324 8.3608964 10.649913 8.2294718 10.502718 C 8.1006758 10.352894 7.903771 10.277926 7.6382935 10.277926 z M 11.367782 10.277926 C 11.207444 10.277926 11.067012 10.32141 10.946102 10.40815 C 10.827823 10.492262 10.73737 10.607704 10.674284 10.754899 C 10.611197 10.902095 10.579199 11.065538 10.579199 11.244275 C 10.579199 11.425641 10.611197 11.589555 10.674284 11.736751 C 10.737368 11.881318 10.830315 11.997276 10.953853 12.084017 C 11.077393 12.168128 11.228835 12.210107 11.407572 12.210107 C 11.562653 12.210107 11.698095 12.177119 11.813749 12.111405 C 11.929402 12.045693 12.030349 11.940746 12.11709 11.796179 L 12.038025 11.736751 C 11.964427 11.841894 11.884469 11.920863 11.797729 11.973429 C 11.713618 12.026003 11.60966 12.052494 11.486121 12.052494 C 11.320526 12.052494 11.190589 11.982515 11.095964 11.843205 C 11.001338 11.703894 10.953853 11.523979 10.953853 11.303186 L 12.148612 11.303186 L 12.156364 11.145573 C 12.156364 10.864324 12.090901 10.649913 11.959477 10.502718 C 11.830681 10.352894 11.633259 10.277926 11.367782 10.277926 z M 13.169739 10.277926 C 12.977859 10.277926 12.821427 10.323904 12.700517 10.415902 C 12.579606 10.50527 12.519132 10.630218 12.519132 10.790556 C 12.519132 10.914095 12.558617 11.018053 12.637472 11.102165 C 12.716326 11.186274 12.834779 11.259736 12.992489 11.322823 L 13.229167 11.421525 C 13.352704 11.471465 13.441651 11.523938 13.496851 11.579138 C 13.554677 11.634337 13.583667 11.700316 13.583667 11.776542 C 13.583667 11.860655 13.547194 11.927624 13.473596 11.977563 C 13.402627 12.027503 13.294669 12.052494 13.150102 12.052494 C 12.987135 12.052494 12.859693 12.01701 12.767696 11.946041 C 12.678324 11.872443 12.621851 11.769474 12.598197 11.638049 L 12.519132 11.638049 C 12.519132 11.756332 12.524639 11.844806 12.535152 11.902633 C 12.545666 11.957829 12.573148 12.007808 12.617834 12.052494 C 12.722974 12.157634 12.92689 12.210107 13.229167 12.210107 C 13.43156 12.210107 13.596981 12.165117 13.725777 12.075749 C 13.854574 11.983751 13.919047 11.857815 13.919047 11.697477 C 13.919047 11.568681 13.878057 11.463734 13.796574 11.382251 C 13.715091 11.298139 13.585155 11.21917 13.406417 11.145573 L 13.169739 11.046871 C 12.95946 10.960131 12.854513 10.848173 12.854513 10.711491 C 12.854513 10.630006 12.888491 10.564544 12.956832 10.514604 C 13.027801 10.462037 13.125265 10.435539 13.248804 10.435539 C 13.403884 10.435539 13.52582 10.472528 13.61519 10.546126 C 13.70456 10.617096 13.760044 10.718559 13.781071 10.849984 L 13.859619 10.849984 C 13.859619 10.729075 13.85463 10.6406 13.844116 10.5854 C 13.833603 10.530204 13.806121 10.480225 13.761434 10.435539 C 13.656294 10.3304 13.458872 10.277926 13.169739 10.277926 z M 9.1048706 10.317716 C 8.8814489 10.317716 8.7694906 10.422664 8.7694906 10.632943 L 8.7694906 10.82983 L 8.8485555 10.82983 C 8.8485555 10.716803 8.8895454 10.630351 8.9710286 10.569897 C 9.0551404 10.506811 9.1785823 10.47533 9.3415487 10.47533 L 9.794751 10.47533 L 8.7694906 12.095903 L 8.7694906 12.170317 L 10.307381 12.170317 L 10.307381 12.012703 L 9.2428467 12.012703 L 10.307381 10.317716 L 9.1048706 10.317716 z M 7.6382935 10.435539 C 7.7776035 10.435539 7.8810448 10.496012 7.9493856 10.616923 C 8.0177264 10.737834 8.0522217 10.914265 8.0522217 11.145573 L 7.2243652 11.145573 C 7.2243652 11.01152 7.2413543 10.890573 7.2755249 10.782804 C 7.3123236 10.675034 7.3623026 10.591077 7.4253866 10.530623 C 7.4884704 10.467537 7.5594387 10.435539 7.6382935 10.435539 z M 11.367782 10.435539 C 11.507091 10.435539 11.611049 10.496012 11.67939 10.616923 C 11.747731 10.737834 11.782227 10.914265 11.782227 11.145573 L 10.953853 11.145573 C 10.953853 11.01152 10.97084 10.890573 11.005013 10.782804 C 11.041809 10.675034 11.091788 10.591077 11.154875 10.530623 C 11.217959 10.467537 11.288927 10.435539 11.367782 10.435539 z M 3.4628377 10.928532 L 3.8374919 10.928532 C 4.0819415 10.928532 4.2673627 10.976016 4.3935303 11.070642 C 4.5223263 11.165267 4.5862834 11.301699 4.5862834 11.480436 C 4.5862834 11.659174 4.5208207 11.796122 4.3893962 11.890747 C 4.2606002 11.985373 4.0766846 12.03234 3.8374919 12.03234 C 3.7139528 12.03234 3.5890053 12.014363 3.4628377 11.977563 L 3.4628377 10.928532 z M 2.7915609 14.429093 L 2.7915609 14.753105 L 14.092163 14.753105 L 14.092163 14.429093 L 2.7915609 14.429093 z " />
  </g>
</svg>
